{
    "asset" : {
        "generator" : "Khronos glTF Blender I/O v1.3.48",
        "version" : "2.0"
    },
    "scene" : 0,
    "scenes" : [
        {
            "name" : "Scene",
            "nodes" : [
                0
            ]
        }
    ],
    "nodes" : [
        {
            "mesh" : 0,
            "name" : "SEAT",
            "rotation" : [
                0.7071068286895752,
                0,
                0,
                0.7071067094802856
            ]
        }
    ],
    "materials" : [
        {
            "doubleSided" : true,
            "emissiveFactor" : [
                0,
                0,
                0
            ],
            "name" : "suede.001",
            "pbrMetallicRoughness" : {
                "metallicFactor" : 0
            }
        }
    ],
    "meshes" : [
        {
            "name" : "SEAT",
            "primitives" : [
                {
                    "attributes" : {
                        "POSITION" : 0,
                        "NORMAL" : 1,
                        "TEXCOORD_0" : 2
                    },
                    "indices" : 3,
                    "material" : 0
                }
            ]
        }
    ],
    "accessors" : [
        {
            "bufferView" : 0,
            "componentType" : 5126,
            "count" : 2001,
            "max" : [
                34.580841064453125,
                6.450749397277832,
                44.542503356933594
            ],
            "min" : [
                -34.58084487915039,
                -51.78313446044922,
                -40.87508773803711
            ],
            "type" : "VEC3"
        },
        {
            "bufferView" : 1,
            "componentType" : 5126,
            "count" : 2001,
            "type" : "VEC3"
        },
        {
            "bufferView" : 2,
            "componentType" : 5126,
            "count" : 2001,
            "type" : "VEC2"
        },
        {
            "bufferView" : 3,
            "componentType" : 5123,
            "count" : 8892,
            "type" : "SCALAR"
        }
    ],
    "bufferViews" : [
        {
            "buffer" : 0,
            "byteLength" : 24012,
            "byteOffset" : 0
        },
        {
            "buffer" : 0,
            "byteLength" : 24012,
            "byteOffset" : 24012
        },
        {
            "buffer" : 0,
            "byteLength" : 16008,
            "byteOffset" : 48024
        },
        {
            "buffer" : 0,
            "byteLength" : 17784,
            "byteOffset" : 64032
        }
    ],
    "buffers" : [
        {
            "byteLength" : 81816,
            "uri" : "data:application/octet-stream;base64,"
        }
    ]
}
